<svg width="28" height="23" viewBox="0 0 28 23" fill="none" xmlns="http://www.w3.org/2000/svg">
  <path d="M0.736636 19.766C0.703205 19.6412 0.684995 19.4901 0.666786 19.3389C0.389946 12.8159 3.26429 10.1513 4.9813 9.15632C6.13984 8.48929 7.67865 8.07697 9.3902 8.30928C9.60958 7.38127 9.90399 6.56689 10.247 5.85091C11.9831 2.26543 15.6263 1.22239 18.3454 2.05396C18.5396 2.11336 18.7338 2.17276 18.9336 2.25295C18.9514 2.06988 18.9443 1.96033 18.9596 1.93397C19.0512 0.861888 19.9988 0.0730724 21.0764 0.185497C22.1485 0.277127 22.9165 1.2303 22.8193 2.28158C22.8097 2.32875 22.7277 3.35366 22.9179 4.7291C24.1368 5.78436 25.2658 7.08656 26.0788 8.54031C27.5922 11.2774 27.9823 12.733 27.49 13.8901C27.2342 14.5159 26.6939 14.995 26.0548 15.1885C24.9167 15.5157 23.2564 15.2251 20.5266 10.028C19.9817 8.99276 19.624 7.90735 19.3774 6.90363C18.5585 6.34297 17.7842 5.94867 17.2016 5.77047C16.089 5.44453 14.5045 5.93595 13.7118 7.55248C13.3936 8.19493 13.1616 8.9926 12.9991 9.8831C13.0254 9.89832 13.0518 9.91354 13.0574 9.93434C16.465 12.5873 17.0417 17.0686 17.2335 18.5328C17.4364 20.0386 16.7313 21.8991 15.0525 22.3712C13.8312 22.7208 12.0294 22.4012 10.4082 18.8461C9.38905 16.6229 8.96886 14.3062 8.94825 12.1498C7.9898 11.9831 7.26905 12.2877 6.9226 12.4919C5.24718 13.4758 4.38884 15.8454 4.51761 19.1541C4.56189 20.2343 3.7309 21.1256 2.67146 21.1643C1.7535 21.232 0.965086 20.6186 0.736636 19.766Z" fill="#787CDA"/>
</svg>